<?xml version="1.0" encoding="utf-8"?>
<!-- Generator: Adobe Illustrator 16.0.0, SVG Export Plug-In . SVG Version: 6.00 Build 0)  -->
<!DOCTYPE svg PUBLIC "-//W3C//DTD SVG 1.1//EN" "http://www.w3.org/Graphics/SVG/1.1/DTD/svg11.dtd">
<svg version="1.1" id="Capa_1" xmlns="http://www.w3.org/2000/svg" xmlns:xlink="http://www.w3.org/1999/xlink" x="0px" y="0px"
	 width="24.24px" height="23.279px" viewBox="0 0 24.24 23.279" enable-background="new 0 0 24.24 23.279" xml:space="preserve">
<g>
	<circle fill="none" stroke="#FFFFFF" stroke-width="0.5" stroke-miterlimit="10" cx="12.121" cy="11.639" r="9.22"/>
	<g>
		<g>
			<rect x="7.881" y="15.527" transform="matrix(0.0059 1 -1 0.0059 26.0057 7.5399)" fill="#FFFFFF" width="2.66" height="2.644"/>
		</g>
		<path fill="#FFFFFF" d="M10.552,12.344c0.008,0,0.016,0,0.023,0c0.494-0.002,0.84-0.002,1.098-0.002c0.289,0,0.471,0,0.629,0.002
			c0.123,0,0.234,0,0.369,0h0.061c0.041,0.002,0.086,0.002,0.137,0.002c0.605,0,1.867-0.064,2.822-1.012
			c0.67-0.664,1.01-1.58,1.01-2.726c0-2.586-2.033-3.525-3.4-3.525H7.865v4.009h2.644V7.727h2.775
			c0.771,0.034,0.771,0.628,0.771,0.881c0,0.285-0.039,0.663-0.227,0.848c-0.225,0.224-0.707,0.245-0.984,0.245
			c-0.033,0-0.064-0.001-0.092-0.001l-0.082-0.001c-0.13,0-0.238,0-0.359,0c-0.162-0.001-0.348-0.002-0.645-0.002
			c-0.26,0-0.607,0.001-1.1,0.002c-1.667,0.006-2.661,0.971-2.661,2.582v2.844h2.645V12.344z"/>
		<g>
			<path fill="#FFFFFF" d="M17.255,13.351c-0.064-0.666-0.271-1.549-0.859-2.279c-0.129,0.189-0.273,0.367-0.439,0.531
				c-0.482,0.477-1.084,0.803-1.799,0.975c0.283,0.191,0.416,0.516,0.465,1.029c0.074,0.754-0.027,1.318-0.285,1.592
				c-0.361,0.385-1.141,0.357-1.473,0.348c-0.072-0.004-0.133-0.006-0.178-0.006c-0.138,0-0.214,0-0.296,0
				c-0.188-0.002-0.461-0.002-1.488,0l0.01,2.645c1.01-0.004,1.279-0.002,1.463,0c0.086,0,0.166,0,0.31,0
				c0.025-0.002,0.053,0.002,0.09,0.002c0.086,0.004,0.201,0.008,0.338,0.008c0.752,0,2.152-0.121,3.152-1.186
				C17.073,16.148,17.407,14.918,17.255,13.351z"/>
		</g>
	</g>
</g>
</svg>
