<?xml version="1.0" encoding="utf-8"?>
<!-- Generator: Adobe Illustrator 16.0.0, SVG Export Plug-In . SVG Version: 6.00 Build 0)  -->
<!DOCTYPE svg PUBLIC "-//W3C//DTD SVG 1.1//EN" "http://www.w3.org/Graphics/SVG/1.1/DTD/svg11.dtd">
<svg version="1.1" id="Layer_1" xmlns="http://www.w3.org/2000/svg" xmlns:xlink="http://www.w3.org/1999/xlink" x="0px" y="0px"
	 width="306px" height="108px" viewBox="0 0 306 108" enable-background="new 0 0 306 108" xml:space="preserve">
<path fill="#FFFFFF" d="M90.318,89.928h-15.83l-6.293-16.371h-28.81l-5.948,16.371H18l28.072-72.072h15.387L90.318,89.928z
	 M63.525,61.412l-9.932-26.744l-9.734,26.744H63.525z"/>
<path fill="#FFFFFF" d="M99,90V17.928h54v12.191h-39.447v15.979h36.184V58.24h-36.184v19.615h40.264V90H99z"/>
<path fill="#FFFFFF" d="M162,54.854c0-11.549,3.355-20.59,10.066-27.125c6.709-6.533,15.371-9.801,25.984-9.801
	c6.951,0,13.215,1.535,18.797,4.604c5.58,3.07,9.834,7.35,12.762,12.838c2.928,5.49,4.391,11.715,4.391,18.678
	c0,7.055-1.539,13.369-4.621,18.938s-7.447,9.785-13.096,12.648c-5.65,2.863-11.744,4.295-18.283,4.295
	c-7.088,0-13.422-1.582-19.002-4.746s-9.809-7.482-12.684-12.959C163.438,66.75,162,60.961,162,54.854z M172.271,54.994
	c0,8.387,2.439,14.99,7.318,19.816s10.998,7.238,18.359,7.238c7.498,0,13.668-2.436,18.514-7.311
	c4.844-4.871,7.268-11.785,7.268-20.74c0-5.662-1.037-10.607-3.107-14.832c-2.074-4.223-5.104-7.498-9.09-9.824
	c-3.988-2.324-8.467-3.488-13.43-3.488c-7.055,0-13.121,2.238-18.207,6.717C174.813,37.047,172.271,44.521,172.271,54.994z"/>
<g>
	<path fill="#FFFFFF" d="M281.1,18.184c1.185,0,2.316,0.287,3.406,0.861c1.088,0.572,1.941,1.395,2.563,2.467
		c0.62,1.07,0.932,2.191,0.932,3.363c0,1.162-0.306,2.273-0.914,3.33s-1.459,1.881-2.549,2.471
		c-1.091,0.592-2.235,0.887-3.438,0.887s-2.347-0.295-3.437-0.887c-1.09-0.59-1.94-1.414-2.55-2.471
		c-0.608-1.057-0.914-2.168-0.914-3.33c0-1.172,0.312-2.293,0.933-3.363c0.621-1.072,1.475-1.895,2.562-2.467
		C278.78,18.471,279.916,18.184,281.1,18.184z M281.109,19.494c-0.948,0-1.859,0.23-2.729,0.689
		c-0.872,0.461-1.56,1.121-2.063,1.982c-0.499,0.861-0.75,1.766-0.75,2.709c0,0.936,0.245,1.83,0.735,2.68
		c0.487,0.85,1.172,1.514,2.05,1.992c0.875,0.477,1.796,0.715,2.756,0.715c0.966,0,1.886-0.238,2.761-0.715
		c0.875-0.479,1.557-1.143,2.05-1.992c0.491-0.85,0.739-1.744,0.739-2.68c0-0.943-0.251-1.848-0.754-2.709
		c-0.5-0.861-1.187-1.521-2.063-1.982C282.968,19.725,282.057,19.494,281.109,19.494z M277.984,28.455v-7.1h1.483
		c1.396,0,2.177,0.006,2.344,0.016c0.493,0.041,0.875,0.137,1.147,0.285c0.275,0.148,0.503,0.375,0.688,0.682
		c0.182,0.305,0.272,0.645,0.272,1.016c0,0.514-0.173,0.951-0.518,1.314c-0.346,0.363-0.83,0.59-1.454,0.678
		c0.222,0.082,0.395,0.17,0.512,0.266c0.121,0.096,0.288,0.277,0.497,0.547c0.055,0.07,0.233,0.357,0.539,0.863l0.866,1.434h-1.838
		l-0.612-1.154c-0.415-0.775-0.757-1.262-1.029-1.461c-0.27-0.203-0.611-0.305-1.026-0.305h-0.388v2.92H277.984z M279.468,24.42
		h0.605c0.86,0,1.394-0.033,1.599-0.096c0.206-0.066,0.37-0.176,0.491-0.336c0.121-0.162,0.182-0.344,0.182-0.547
		c0-0.199-0.061-0.375-0.176-0.527c-0.118-0.154-0.285-0.268-0.5-0.334c-0.218-0.066-0.751-0.1-1.596-0.1h-0.605V24.42z"/>
</g>
<path fill="#FFFFFF" d="M243,89.928V17.855h9.539v63.566h35.494v8.506H243z"/>
</svg>
